Coordinates
version=1
nRows=11
nColumns=40
inDegrees=yes

Units are S.I. units (second, meters, Newtons, ...)
Angles are in degrees.

endheader
time	pelvis_tilt	pelvis_list	pelvis_rotation	pelvis_tx	pelvis_ty	pelvis_tz	hip_flexion_r	hip_adduction_r	hip_rotation_r	knee_angle_r	knee_angle_r_beta	ankle_angle_r	subtalar_angle_r	mtp_angle_r	hip_flexion_l	hip_adduction_l	hip_rotation_l	knee_angle_l	knee_angle_l_beta	ankle_angle_l	subtalar_angle_l	mtp_angle_l	lumbar_extension	lumbar_bending	lumbar_rotation	arm_flex_r	arm_add_r	arm_rot_r	elbow_flex_r	pro_sup_r	wrist_flex_r	wrist_dev_r	arm_flex_l	arm_add_l	arm_rot_l	elbow_flex_l	pro_sup_l	wrist_flex_l	wrist_dev_l
     15.75000000	     -0.57354462	     17.81062978	     77.95164824	      0.51109090	      0.99881512	     -1.03940184	      9.97567657	     -1.58520556	      4.83157055	     15.30033594	      0.26704124	      6.27023798	      0.00000000	      0.00000000	    -29.63453500	      8.76941611	    -14.88636237	      0.31314390	      0.00546539	     15.87537051	      0.00000000	      0.00000000	    -34.07961912	     -5.86289228	     -2.26786250	      3.04960685	     -9.46747541	      0.03309811	    140.59808158	     86.86932236	      0.00000000	      0.00000000	      7.90323751	    -16.89596060	     -2.01780448	    144.79281232	     80.79631971	      0.00000000	      0.00000000
     15.76000000	     -1.08254222	     17.22824844	     77.68514215	      0.51279032	      0.99505917	     -1.03805808	     10.67627557	     -1.58235401	      6.15644122	     12.34164826	      0.21540240	      6.30597965	      0.00000000	      0.00000000	    -29.66843988	      9.38866977	    -15.07419970	      0.30035062	      0.00524211	     16.19327961	      0.00000000	      0.00000000	    -33.51215562	     -6.54575605	     -2.01089457	      2.85398442	     -9.31204054	      0.07007576	    140.54926258	     86.14717087	      0.00000000	      0.00000000	      7.70248741	    -16.81334337	     -2.16335543	    144.74094985	     80.08464080	      0.00000000	      0.00000000
     15.77000000	     -1.29727120	     16.65275076	     77.51283715	      0.51448228	      0.99159840	     -1.03677203	     11.16744810	     -1.34877415	      7.42521389	      9.41171120	      0.16426535	      5.55853597	      0.00000000	      0.00000000	    -29.72256450	      9.62131017	    -15.26574474	      0.34191321	      0.00596751	     16.81574792	      0.00000000	      0.00000000	    -33.04290462	     -6.86262857	     -1.77942907	      2.72571144	     -9.11163610	      0.04807181	    140.43949455	     86.23050856	      0.00000000	      0.00000000	      7.40777936	    -16.62389693	     -2.29888007	    144.79688080	     79.52073296	      0.00000000	      0.00000000
     15.78000000	     -1.57377287	     16.06652372	     77.15890848	      0.51628714	      0.98785234	     -1.03565768	     12.00576543	     -1.16386653	      8.95262877	      7.44688727	      0.12997270	      5.34838913	      0.00000000	      0.00000000	    -29.75389114	     10.01919283	    -15.44647847	      0.38665225	      0.00674835	     17.37054542	      0.00000000	      0.00000000	    -32.49365706	     -7.28748643	     -1.35364956	      2.57148511	     -8.95584159	     -0.05240875	    140.37269877	     86.79337011	      0.00000000	      0.00000000	      7.10223402	    -16.35270810	     -2.54376199	    144.69655211	     79.84011998	      0.00000000	      0.00000000
     15.79000000	     -1.89070418	     15.48213255	     76.85111206	      0.51777375	      0.98391555	     -1.03513737	     12.94668278	     -1.07399799	     10.35551363	      6.12486497	      0.10689906	      5.53965634	      0.00000000	      0.00000000	    -29.77896784	     10.45405718	    -15.54188315	      0.47149069	      0.00822906	     17.83199485	      0.00000000	      0.00000000	    -31.84834602	     -7.67473769	     -0.95906722	      2.39368314	     -8.86799975	     -0.13212320	    140.34200246	     86.93267326	      0.00000000	      0.00000000	      6.71696028	    -15.98360684	     -2.86228987	    144.52978723	     81.14235061	      0.00000000	      0.00000000
     15.80000000	     -2.17939859	     14.94053359	     76.63151152	      0.51910600	      0.98010325	     -1.03500609	     13.90428803	     -1.00232532	     11.36017488	      5.43656042	      0.09488588	      6.05524838	      0.00000000	      0.00000000	    -29.80522118	     10.81032872	    -15.47483465	      0.66485307	      0.01160388	     18.29992598	      0.00000000	      0.00000000	    -31.19443665	     -7.95505898	     -0.63375553	      2.21885546	     -8.75525114	     -0.24177722	    140.27324136	     86.89706169	      0.00000000	      0.00000000	      6.22553271	    -15.52029702	     -3.14077283	    144.38230112	     81.16955404	      0.00000000	      0.00000000
     15.81000000	     -2.33793989	     14.52459780	     76.36419907	      0.52053562	      0.97674558	     -1.03490937	     14.84117422	     -0.81068366	     11.87326154	      5.47673713	      0.09558710	      6.33983509	      0.00000000	      0.00000000	    -29.82503979	     11.03929733	    -15.71634644	      1.17815535	      0.02056269	     18.93089012	      0.00000000	      0.00000000	    -30.68952169	     -8.12632167	     -0.22314649	      2.05542372	     -8.65761184	     -0.34141986	    140.19746688	     86.82514602	      0.00000000	      0.00000000	      5.72974206	    -14.95788795	     -3.37489877	    144.21731662	     80.38426144	      0.00000000	      0.00000000
     15.82000000	     -2.59588860	     14.24926427	     76.12043754	      0.52162013	      0.97354285	     -1.03507454	     16.08622192	     -0.72673225	     11.63984478	      6.85838893	      0.11970147	      7.10834367	      0.00000000	      0.00000000	    -29.83222664	     11.36954087	    -15.97977674	      2.01445910	      0.03515894	     19.45370766	      0.00000000	      0.00000000	    -30.28273035	     -8.35273792	      0.13584485	      1.94082505	     -8.62658223	     -0.46639194	    140.14911465	     86.91766746	      0.00000000	      0.00000000	      5.20209809	    -14.28235560	     -3.79454057	    143.96236813	     81.89522627	      0.00000000	      0.00000000
     15.83000000	     -2.85059055	     14.11190292	     76.13073054	      0.52247082	      0.97078193	     -1.03567240	     17.11029447	     -0.77652799	     11.00357895	      8.61204207	      0.15030849	      8.02536947	      0.00000000	      0.00000000	    -29.83838639	     11.53944797	    -16.12171657	      3.22140982	      0.05622421	     19.87137963	      0.00000000	      0.00000000	    -29.98900164	     -8.46606032	      0.27756909	      1.80117886	     -8.53183663	     -0.59880856	    140.09767608	     86.98115578	      0.00000000	      0.00000000	      4.64933802	    -13.62585289	     -4.13935074	    143.77020868	     81.60798135	      0.00000000	      0.00000000
     15.84000000	     -3.06686514	     14.02243820	     76.15329881	      0.52337083	      0.96830664	     -1.03650059	     18.09441996	     -0.83992718	     10.27971516	     10.83384455	      0.18908626	      8.90443848	      0.00000000	      0.00000000	    -29.84320036	     11.64436091	    -16.32372937	      4.57420094	      0.07983487	     20.14080789	      0.00000000	      0.00000000	    -29.71186219	     -8.53299038	      0.43654914	      1.68241432	     -8.42303833	     -0.79653015	    140.04612296	     87.05849000	      0.00000000	      0.00000000	      4.04886030	    -12.88713087	     -4.53740653	    143.51856407	     81.64871133	      0.00000000	      0.00000000
     15.85000000	     -3.24006605	     13.95633194	     76.29420708	      0.52404039	      0.96604126	     -1.03787077	     18.99257479	     -0.98202066	      9.30729999	     13.39479648	      0.23378330	      9.34984204	      0.00000000	      0.00000000	    -29.84709692	     11.61980264	    -16.58309868	      6.07084261	      0.10595619	     20.23860834	      0.00000000	      0.00000000	    -29.41233858	     -8.47924544	      0.51877464	      1.50302244	     -8.32068055	     -1.05369237	    140.05895398	     86.96703167	      0.00000000	      0.00000000	      3.36207538	    -12.07800259	     -4.97122019	    143.28299801	     81.95834582	      0.00000000	      0.00000000
